<svg width="1080" height="1080" viewBox="0 0 1080 1080" fill="none" xmlns="http://www.w3.org/2000/svg">
<rect width="1080" height="1080" rx="32" fill="#F7F6F3"/>
<g clip-path="url(#clip0_111_1788)">
<rect x="446.375" y="446.374" width="187.251" height="187.251" rx="93.6253" fill="#19254A"/>
<g clip-path="url(#clip1_111_1788)">
<path d="M633.717 540.001C633.717 591.759 591.758 633.719 539.999 633.719C488.239 633.719 446.283 591.759 446.283 540.001C446.283 488.243 488.241 446.283 540.001 446.283C591.76 446.283 633.719 488.241 633.719 540.001H633.717ZM584.175 501.807C584.179 496.342 578.793 493.218 574.639 490.791C570.805 488.552 566.379 486.121 562.099 484.967C559.14 484.17 556.077 483.732 553.072 483.135L552.924 482.933C553.811 477.515 553.158 471.66 550.328 466.896C545.503 458.77 534.963 456.477 526.163 457.673C537.188 463.263 548.206 470.621 552.037 483.027C547.732 482.221 543.367 482.736 539.039 483.031C537.061 480.061 534.961 477.108 532.324 474.675C521.71 464.876 504.561 462.238 493.399 472.593C500.023 471.042 506.809 471.395 513.09 474.085C519.565 476.856 524.484 481.789 530.544 485.218C527.351 486.816 523.38 487.843 521.143 490.739H520.851C513.261 485.476 506.619 478.613 496.492 480.381C479.671 483.317 482.671 510.315 499.971 509.315C500.728 509.272 502.302 509.061 502.79 508.487C497.325 506.928 491.897 499.568 493.245 493.825C494.917 486.699 504.292 489.289 508.848 491.682C512.76 493.738 516.961 497.254 519.484 500.856C504.67 509.29 505.632 530.308 520.129 538.622C528.257 543.284 541.543 541.038 547.202 549.736C549.631 553.467 550.489 558.773 554.886 560.833C561.953 564.145 572.627 559.94 579.307 556.935C582.093 555.681 590.314 551.747 591.729 549.325C592.927 547.275 592.8 543.077 592.497 540.748C591.623 534.023 581.371 535.147 578.952 529.044C577.303 524.883 582.04 524.759 584.895 524.542C589.269 524.211 593.864 524.217 598.25 524.125C600.79 524.071 603.338 524.183 605.875 524.131C597.818 515.417 587.581 509.165 578.117 502.122L577.287 500.347L584.171 501.805L584.175 501.807ZM563.13 482.791L566.131 483.838C572.56 475.635 567.032 464.204 557.884 461.326C562.613 467.336 563.811 475.31 563.13 482.791ZM460.848 562.74C463.271 553.728 467.275 545.099 471.593 536.863C475.082 530.206 479.222 523.891 482.342 517.043C468.137 524.764 458.167 541.18 459.809 557.628L460.846 562.742L460.848 562.74ZM496.951 525.807C496.559 525.721 496.444 526.001 496.237 526.239C495.213 527.412 494.27 529.2 493.189 530.494C482.594 543.181 469.358 557.225 471.52 575.338C472.43 582.959 476.338 590.444 481.616 595.918L479.871 586.811C478.444 576.062 479.656 567.267 483.978 557.382C485.82 553.166 488.287 549.235 490.244 545.076C493.155 538.895 495.348 532.451 496.951 525.805V525.807ZM605.043 556.689C606.808 549.575 609.871 541.919 607.906 534.525C607.597 533.363 607.131 532.015 606.178 531.239C605.176 532.096 604.358 533.167 603.38 534.052C601.873 535.414 599.239 537.007 598.277 538.757C597.376 540.398 596.867 546.533 597.136 548.427C597.192 548.828 597.313 549.154 597.532 549.492C598.401 550.823 601.247 552.953 602.547 554.285C602.814 554.558 604.665 557.037 605.045 556.689H605.043ZM507.176 546.883C506.94 546.626 506.273 547.672 506.141 547.828C496.494 559.345 490.186 570.641 493.049 586.364C495.52 599.943 507.333 612.457 520.533 616.159C514.766 609.35 509.818 601.754 506.757 593.315C501.842 579.766 501.834 564.639 505.822 550.846C506.208 549.515 506.675 548.173 507.178 546.883H507.176ZM593.57 584.86C600.437 580.49 605.8 567.348 599.519 560.649C595.98 556.874 592.295 557.903 587.942 559.306C582.967 560.906 574.476 564.529 570.252 567.492C563.203 572.437 572.195 577.717 577.237 578.55C577.927 578.664 578.618 578.51 579.263 578.61C580.208 578.758 583.672 581.993 584.382 582.882C585.262 583.981 585.999 585.411 586.475 586.738C589.63 584.461 592.028 581.037 592.626 577.141C594.262 579.355 593.77 582.299 593.568 584.862L593.57 584.86ZM541.397 624.299C543.056 619.037 543.602 613.678 542.555 608.225C540.176 595.853 530.037 587.114 524.945 575.962C522.645 570.927 521.26 565.535 520.638 560.03C517.076 569.769 517.881 581.429 522.232 590.778C527.113 601.27 536.24 609.241 540.095 620.285L541.397 624.299ZM562.686 619.083C566.947 615.45 568.456 608.972 567.659 603.57C565.935 591.888 554.23 586.183 546.194 579.126C543.433 576.701 540.963 573.973 538.686 571.089C539.784 577.992 543.546 583.831 547.872 589.134C551.977 594.167 557.06 598.553 559.731 604.611C561.722 609.123 562.513 614.175 562.684 619.085L562.686 619.083Z" fill="#19254A"/>
<path d="M507.177 546.883C506.676 548.173 506.206 549.515 505.82 550.846C501.83 564.637 501.839 579.766 506.755 593.315C509.816 601.754 514.764 609.35 520.532 616.159C507.331 612.457 495.52 599.943 493.047 586.364C490.184 570.641 496.495 559.345 506.139 547.828C506.271 547.672 506.939 546.626 507.175 546.883H507.177Z" fill="#F7F6F3"/>
<path d="M496.951 525.807C495.349 532.453 493.155 538.895 490.244 545.078C488.285 549.237 485.821 553.168 483.978 557.384C479.656 567.269 478.444 576.064 479.871 586.813L481.616 595.92C476.338 590.446 472.43 582.961 471.52 575.34C469.36 557.225 482.594 543.181 493.189 530.496C494.27 529.202 495.211 527.414 496.238 526.241C496.444 526.003 496.559 525.723 496.951 525.809V525.807Z" fill="#F7F6F3"/>
<path d="M541.397 624.299L540.095 620.285C536.24 609.244 527.113 601.27 522.232 590.778C517.883 581.429 514.629 570.227 522.32 547.62C522.942 553.125 518.125 559.507 524.945 575.962C530.037 587.111 540.176 595.853 542.555 608.225C543.605 613.678 543.056 619.035 541.397 624.299Z" fill="#F7F6F3"/>
<path d="M562.686 619.083C562.515 614.172 561.724 609.122 559.733 604.609C557.06 598.551 551.979 594.165 547.874 589.131C527.121 566.559 533.085 556.92 531.986 550.019C534.515 569.283 536.656 569.672 546.196 579.123C554.233 586.183 565.937 591.886 567.661 603.568C568.458 608.97 566.949 615.447 562.688 619.08L562.686 619.083Z" fill="#F7F6F3"/>
<path d="M460.848 562.74L459.811 557.626C458.169 541.178 468.137 524.762 482.344 517.041C479.224 523.887 475.084 530.204 471.595 536.86C467.278 545.097 463.271 553.726 460.85 562.738L460.848 562.74Z" fill="#F7F6F3"/>
<path d="M584.175 501.807L577.291 500.349L578.122 502.124C587.583 509.167 597.823 515.421 605.88 524.133C603.342 524.186 600.792 524.073 598.255 524.127C593.868 524.219 589.273 524.213 584.899 524.544C582.043 524.762 577.306 524.883 578.956 529.046C581.375 535.149 591.627 534.025 592.501 540.75C592.804 543.079 592.929 547.278 591.733 549.327C590.319 551.749 582.097 555.683 579.311 556.937C572.631 559.942 561.958 564.147 554.89 560.835C550.493 558.776 549.635 553.469 547.206 549.738C541.547 541.042 528.259 543.286 520.133 538.624C505.636 530.31 504.674 509.292 519.488 500.858C516.967 497.256 512.765 493.74 508.852 491.684C504.299 489.291 494.923 486.701 493.249 493.828C491.901 499.57 497.331 506.93 502.794 508.489C502.306 509.063 500.732 509.274 499.975 509.317C482.676 510.317 479.675 483.319 496.496 480.383C506.623 478.615 513.265 485.478 520.855 490.743H521.147C523.384 487.845 527.355 486.82 530.548 485.22C524.49 481.789 519.57 476.858 513.094 474.087C506.813 471.397 500.029 471.044 493.404 472.595C504.566 462.24 521.715 464.88 532.328 474.677C534.963 477.111 537.063 480.063 539.043 483.033C543.371 482.739 547.734 482.223 552.041 483.029C548.212 470.623 537.192 463.265 526.168 457.675C534.968 456.477 545.508 458.772 550.332 466.898C553.162 471.664 553.813 477.517 552.928 482.935L553.076 483.137C556.081 483.732 559.145 484.17 562.104 484.969C566.382 486.123 570.81 488.554 574.643 490.793C578.798 493.22 584.182 496.346 584.179 501.809L584.175 501.807ZM550.537 501.661C547.714 501.949 544.364 503.347 541.885 504.695C541.053 505.148 537.964 506.799 538.05 507.746C538.167 509.036 542.499 509.472 543.532 509.797C546.171 510.626 546.555 513.977 549.114 514.649C550.549 515.027 553.538 514.609 554.867 513.919C555.462 513.61 556.269 512.602 556.895 512.69L567.584 518.514C568.541 518.979 569.539 518.361 569.044 517.258C567.323 514.793 565.649 512.272 564.061 509.72C561.684 505.899 561.403 502.809 556.265 501.866C554.502 501.542 552.327 501.48 550.539 501.661H550.537Z" fill="#F7F6F3"/>
<path d="M593.57 584.86C593.772 582.299 594.265 579.355 592.629 577.139C592.03 581.035 589.632 584.459 586.477 586.736C586.001 585.411 585.265 583.979 584.384 582.88C583.673 581.993 580.211 578.756 579.265 578.608C578.623 578.508 577.932 578.66 577.239 578.547C572.2 577.715 563.208 572.435 570.255 567.49C574.478 564.527 582.967 560.904 587.944 559.303C592.299 557.901 595.982 556.87 599.521 560.647C605.803 567.348 600.437 580.488 593.572 584.858L593.57 584.86Z" fill="#F7F6F3"/>
<path d="M605.043 556.689C604.663 557.035 602.812 554.556 602.545 554.285C601.245 552.953 598.397 550.823 597.531 549.492C597.31 549.154 597.191 548.828 597.134 548.427C596.865 546.533 597.376 540.395 598.276 538.757C599.238 537.007 601.871 535.414 603.378 534.052C604.357 533.167 605.175 532.096 606.176 531.239C607.13 532.015 607.595 533.363 607.904 534.525C609.87 541.919 606.806 549.575 605.041 556.689H605.043Z" fill="#F7F6F3"/>
<path d="M563.13 482.791C563.811 475.312 562.613 467.336 557.884 461.326C567.033 464.202 572.56 475.633 566.131 483.838L563.13 482.791Z" fill="#F7F6F3"/>
<path d="M550.537 501.661C552.325 501.48 554.5 501.54 556.263 501.866C561.398 502.809 561.68 505.901 564.059 509.72C565.647 512.272 567.321 514.793 569.042 517.258C569.537 518.361 568.541 518.979 567.581 518.514L556.893 512.69C556.267 512.602 555.459 513.612 554.865 513.919C553.536 514.607 550.547 515.027 549.112 514.649C546.553 513.977 546.169 510.626 543.53 509.797C542.495 509.472 538.162 509.036 538.048 507.746C537.962 506.799 541.05 505.148 541.883 504.695C544.362 503.347 547.713 501.949 550.535 501.661H550.537Z" fill="#19254A"/>
</g>
</g>
<defs>
<clipPath id="clip0_111_1788">
<rect x="446.375" y="446.374" width="187.251" height="187.251" rx="93.6253" fill="white"/>
</clipPath>
<clipPath id="clip1_111_1788">
<rect width="187.434" height="187.434" fill="white" transform="translate(446.283 446.283)"/>
</clipPath>
</defs>
</svg>
